<svg xmlns="http://www.w3.org/2000/svg" xmlns:xlink="http://www.w3.org/1999/xlink" width="202" zoomAndPan="magnify" viewBox="0 0 151.5 30.000001" height="40" preserveAspectRatio="xMidYMid meet" version="1.0"><defs><g/><clipPath id="d6746d72fc"><path d="M 23.367188 5.957031 L 143.261719 5.957031 L 143.261719 26.128906 L 23.367188 26.128906 Z M 23.367188 5.957031 " clip-rule="nonzero"/></clipPath><clipPath id="631c25948c"><path d="M 23.382812 5.957031 L 143.125 5.957031 L 143.125 26.121094 L 23.382812 26.121094 Z M 23.382812 5.957031 " clip-rule="nonzero"/></clipPath><clipPath id="6ee5d5d652"><path d="M 81.003906 8.808594 L 140.367188 8.808594 L 140.367188 23.671875 L 81.003906 23.671875 Z M 81.003906 8.808594 " clip-rule="nonzero"/></clipPath><clipPath id="52716fc977"><path d="M 21 0 L 28 0 L 28 26.128906 L 21 26.128906 Z M 21 0 " clip-rule="nonzero"/></clipPath><clipPath id="5de0e8e75f"><path d="M 19 8 L 23 8 L 23 26.128906 L 19 26.128906 Z M 19 8 " clip-rule="nonzero"/></clipPath><clipPath id="174d5b8a18"><path d="M 16 13 L 20 13 L 20 26.128906 L 16 26.128906 Z M 16 13 " clip-rule="nonzero"/></clipPath><clipPath id="0cd2450162"><path d="M 13 18 L 16 18 L 16 26.128906 L 13 26.128906 Z M 13 18 " clip-rule="nonzero"/></clipPath><clipPath id="2d2bf23e0c"><path d="M 10.609375 22 L 13 22 L 13 26.128906 L 10.609375 26.128906 Z M 10.609375 22 " clip-rule="nonzero"/></clipPath><clipPath id="f13bd34bdc"><path d="M 21 15 L 33.527344 15 L 33.527344 26.128906 L 21 26.128906 Z M 21 15 " clip-rule="nonzero"/></clipPath><clipPath id="f61467cbbd"><path d="M 15 7 L 33.527344 7 L 33.527344 26.128906 L 15 26.128906 Z M 15 7 " clip-rule="nonzero"/></clipPath></defs><g clip-path="url(#d6746d72fc)"><path fill="#ffffff" d="M 23.367188 5.957031 L 143.285156 5.957031 L 143.285156 26.128906 L 23.367188 26.128906 Z M 23.367188 5.957031 " fill-opacity="1" fill-rule="nonzero"/></g><g clip-path="url(#631c25948c)"><path stroke-linecap="butt" transform="matrix(0.725806, 0, 0, 0.725806, 23.384491, 5.95865)" fill="none" stroke-linejoin="miter" d="M -0.00231299 -0.00223044 L 165.137272 -0.00223044 L 165.137272 27.779367 L -0.00231299 27.779367 Z M -0.00231299 -0.00223044 " stroke="#000000" stroke-width="6" stroke-opacity="1" stroke-miterlimit="4"/></g><g clip-path="url(#6ee5d5d652)"><path fill="#9f4ee3" d="M 81.003906 8.808594 L 140.394531 8.808594 L 140.394531 23.671875 L 81.003906 23.671875 Z M 81.003906 8.808594 " fill-opacity="1" fill-rule="nonzero"/></g><g clip-path="url(#52716fc977)"><path fill="#9f4ee3" d="M 27.703125 4.019531 L 24.800781 0 L 21.898438 4.019531 L 23.460938 4.019531 L 23.460938 27.296875 L 26.070312 27.296875 L 26.070312 4.019531 L 27.703125 4.019531 " fill-opacity="1" fill-rule="nonzero"/></g><g clip-path="url(#5de0e8e75f)"><path fill="#9f4ee3" d="M 19.996094 8.679688 L 19.996094 27.296875 L 22.605469 27.296875 L 22.605469 8.679688 L 19.996094 8.679688 " fill-opacity="1" fill-rule="nonzero"/></g><g clip-path="url(#174d5b8a18)"><path fill="#9f4ee3" d="M 16.527344 13.550781 L 16.527344 27.296875 L 19.136719 27.296875 L 19.136719 13.550781 L 16.527344 13.550781 " fill-opacity="1" fill-rule="nonzero"/></g><g clip-path="url(#0cd2450162)"><path fill="#9f4ee3" d="M 13.0625 18.421875 L 13.0625 27.296875 L 15.671875 27.296875 L 15.671875 18.421875 L 13.0625 18.421875 " fill-opacity="1" fill-rule="nonzero"/></g><g clip-path="url(#2d2bf23e0c)"><path fill="#9f4ee3" d="M 9.59375 22.597656 L 9.59375 27.296875 L 12.203125 27.296875 L 12.203125 22.597656 L 9.59375 22.597656 " fill-opacity="1" fill-rule="nonzero"/></g><g clip-path="url(#f13bd34bdc)"><path fill="#f78f34" d="M 33.601562 21.175781 C 33.601562 24.457031 30.941406 27.113281 27.664062 27.113281 C 24.386719 27.113281 21.726562 24.457031 21.726562 21.175781 C 21.726562 17.898438 24.386719 15.238281 27.664062 15.238281 C 30.941406 15.238281 33.601562 17.898438 33.601562 21.175781 " fill-opacity="1" fill-rule="nonzero"/></g><path fill="#fabb35" d="M 32.265625 21.175781 C 32.265625 23.71875 30.207031 25.777344 27.664062 25.777344 C 25.121094 25.777344 23.0625 23.71875 23.0625 21.175781 C 23.0625 18.636719 25.121094 16.574219 27.664062 16.574219 C 30.207031 16.574219 32.265625 18.636719 32.265625 21.175781 " fill-opacity="1" fill-rule="nonzero"/><g clip-path="url(#f61467cbbd)"><path stroke-linecap="round" transform="matrix(0.0120358, 0, 0, -0.0120358, -3.989791, 39.236615)" fill="none" stroke-linejoin="miter" d="M 2757.855415 1630.093179 C 2757.855415 1630.093179 2750.715241 1711.880629 2642.963521 1719.66991 C 2557.28143 1726.160978 2506.001997 1695.977514 2497.239056 1638.531567 C 2497.239056 1638.531567 2484.906027 1556.744117 2535.860907 1530.455293 C 2596.227835 1499.298169 2763.048269 1495.403529 2764.671036 1384.406275 C 2764.671036 1384.406275 2771.486657 1285.742049 2634.525133 1285.742049 C 2634.525133 1285.742049 2502.107356 1282.171962 2495.291735 1364.933073 " stroke="#f78f34" stroke-width="63.361" stroke-opacity="1" stroke-miterlimit="10"/></g><path stroke-linecap="round" transform="matrix(0.0120358, 0, 0, -0.0120358, -3.989791, 39.236615)" fill="none" stroke-linejoin="miter" d="M 2572.859992 1791.071653 L 2572.859992 1715.126163 " stroke="#f78f34" stroke-width="63.361" stroke-opacity="1" stroke-miterlimit="10"/><path stroke-linecap="round" transform="matrix(0.0120358, 0, 0, -0.0120358, -3.989791, 39.236615)" fill="none" stroke-linejoin="miter" d="M 2669.576897 1791.071653 L 2669.576897 1715.126163 " stroke="#f78f34" stroke-width="63.361" stroke-opacity="1" stroke-miterlimit="10"/><path stroke-linecap="round" transform="matrix(0.0120358, 0, 0, -0.0120358, -3.989791, 39.236615)" fill="none" stroke-linejoin="miter" d="M 2581.622933 1285.742049 L 2581.622933 1210.121113 " stroke="#f78f34" stroke-width="63.361" stroke-opacity="1" stroke-miterlimit="10"/><path stroke-linecap="round" transform="matrix(0.0120358, 0, 0, -0.0120358, -3.989791, 39.236615)" fill="none" stroke-linejoin="miter" d="M 2678.339838 1285.742049 L 2678.339838 1210.121113 " stroke="#f78f34" stroke-width="63.361" stroke-opacity="1" stroke-miterlimit="10"/><g fill="#000000" fill-opacity="1"><g transform="translate(27.267032, 19.377773)"><g><path d="M 1.085938 0.03125 L 1.296875 0 L 1.703125 0.0195312 L 1.933594 -0.0117188 L 2.269531 0.0117188 L 2.5625 -0.113281 L 2.6875 -0.304688 L 2.65625 -1.402344 L 2.6875 -1.726562 L 2.675781 -1.945312 L 2.699219 -2.320312 L 2.675781 -2.550781 L 2.675781 -2.960938 L 2.769531 -3.054688 L 2.875 -3.011719 L 3.042969 -2.875 L 3.167969 -2.71875 L 3.597656 -2.289062 L 3.734375 -2.121094 L 4.015625 -1.851562 L 4.234375 -1.695312 L 4.464844 -1.683594 L 4.675781 -1.839844 L 4.820312 -1.996094 L 4.945312 -2.121094 L 5.238281 -2.46875 L 5.386719 -2.574219 L 5.8125 -3.011719 L 5.949219 -3.074219 L 6.035156 -2.917969 L 6.011719 -2.34375 L 6.042969 -1.925781 L 6.023438 -1.515625 L 6.042969 -1.128906 L 6.023438 -0.941406 L 6.042969 -0.46875 L 6.042969 -0.3125 L 6.128906 -0.0742188 L 6.347656 -0.0117188 L 7.613281 0.03125 L 7.832031 -0.0820312 L 7.957031 -0.386719 L 7.925781 -0.929688 L 7.949219 -1.140625 L 7.925781 -4.277344 L 7.949219 -4.507812 L 7.9375 -5.542969 L 7.949219 -5.742188 L 7.925781 -6.191406 L 7.9375 -6.367188 L 7.925781 -6.796875 L 7.949219 -6.996094 L 7.820312 -7.214844 L 7.601562 -7.332031 L 7.300781 -7.234375 L 7.078125 -7.101562 L 6.640625 -6.640625 L 6.503906 -6.472656 L 6.378906 -6.359375 L 6.234375 -6.167969 L 5.3125 -5.230469 L 5.175781 -5.050781 L 4.539062 -4.402344 L 4.351562 -4.277344 L 4.128906 -4.359375 L 4.003906 -4.539062 L 3.859375 -4.683594 L 3.671875 -4.925781 L 3.441406 -5.132812 L 2.488281 -6.191406 L 2.34375 -6.316406 L 2.070312 -6.640625 L 1.902344 -6.785156 L 1.632812 -7.070312 L 1.390625 -7.246094 L 1.097656 -7.332031 L 0.867188 -7.226562 L 0.753906 -7.007812 L 0.785156 -6.367188 L 0.753906 -5.960938 L 0.773438 -5.773438 L 0.761719 -4.097656 L 0.785156 -3.890625 L 0.753906 -2.832031 L 0.773438 -2.636719 L 0.761719 -0.324219 L 0.878906 -0.105469 Z M 1.085938 0.03125 "/></g></g></g><g fill="#000000" fill-opacity="1"><g transform="translate(36.804092, 19.377773)"><g><path d="M 6.167969 0.0195312 L 6.566406 -0.0117188 L 6.765625 0.0117188 L 7.089844 0 L 7.382812 -0.0507812 L 7.414062 -0.304688 L 7.339844 -0.542969 L 7.183594 -0.929688 L 6.902344 -1.472656 L 6.753906 -1.863281 L 6.546875 -2.238281 L 6.148438 -3.1875 L 6.042969 -3.347656 L 5.941406 -3.546875 L 5.875 -3.773438 L 5.78125 -3.933594 L 5.71875 -4.097656 L 5.5 -4.484375 L 5.425781 -4.707031 L 4.738281 -6.160156 L 4.675781 -6.367188 L 4.558594 -6.554688 L 4.496094 -6.746094 L 4.296875 -7.109375 L 4.121094 -7.300781 L 3.773438 -7.402344 L 3.441406 -7.289062 L 3.253906 -7.109375 L 3.15625 -6.933594 L 3.085938 -6.722656 L 2.992188 -6.578125 L 2.574219 -5.617188 L 2.457031 -5.457031 L 2.40625 -5.25 L 2.289062 -5.050781 L 2.226562 -4.863281 L 1.160156 -2.625 L 1.097656 -2.394531 L 0.992188 -2.238281 L 0.921875 -2.027344 L 0.730469 -1.695312 L 0.574219 -1.277344 L 0.460938 -1.128906 L 0.40625 -0.941406 L 0.199219 -0.523438 L 0.136719 -0.3125 L 0.1875 -0.0507812 L 0.398438 0.0117188 L 0.804688 -0.0117188 L 1.015625 0.0117188 L 1.601562 -0.0117188 L 1.839844 -0.0820312 L 2.039062 -0.273438 L 2.226562 -0.617188 L 2.425781 -0.816406 L 2.644531 -0.929688 L 2.84375 -0.898438 L 3.285156 -0.941406 L 3.472656 -0.910156 L 4.496094 -0.921875 L 4.683594 -0.898438 L 4.914062 -0.929688 L 5.144531 -0.816406 L 5.34375 -0.648438 L 5.4375 -0.449219 L 5.5 -0.261719 L 5.710938 -0.105469 L 5.949219 0 Z M 3.796875 -2.582031 L 3.585938 -2.625 L 3.347656 -2.605469 L 3.179688 -2.675781 L 3.167969 -2.875 L 3.660156 -4.003906 L 3.773438 -4.097656 L 3.921875 -4.015625 L 4.414062 -2.867188 L 4.371094 -2.675781 L 4.214844 -2.59375 Z M 3.796875 -2.582031 "/></g></g></g><g fill="#000000" fill-opacity="1"><g transform="translate(45.190865, 19.377773)"><g><path d="M 2.8125 0.09375 L 3.640625 0.113281 L 3.847656 0.09375 L 4.058594 0.0429688 L 4.265625 0.0117188 L 4.476562 -0.0742188 L 4.664062 -0.09375 L 4.863281 -0.1875 L 5.574219 -0.617188 L 5.875 -0.929688 L 5.980469 -1.078125 L 6.097656 -1.308594 L 6.160156 -1.496094 L 6.222656 -1.671875 L 6.285156 -2.195312 L 6.265625 -2.53125 L 6.105469 -3.136719 L 5.992188 -3.304688 L 5.71875 -3.617188 L 5.53125 -3.785156 L 5.363281 -3.867188 L 5.175781 -3.984375 L 4.359375 -4.234375 L 4.152344 -4.265625 L 3.941406 -4.277344 L 3.722656 -4.320312 L 3.417969 -4.320312 L 2.867188 -4.433594 L 2.476562 -4.621094 L 2.320312 -4.769531 L 2.28125 -5.082031 L 2.332031 -5.363281 L 2.457031 -5.5 L 2.613281 -5.617188 L 2.78125 -5.710938 L 2.96875 -5.75 L 3.304688 -5.761719 L 3.640625 -5.71875 L 3.828125 -5.667969 L 4.015625 -5.542969 L 4.191406 -5.394531 L 4.351562 -5.1875 L 4.582031 -5.050781 L 5.070312 -5.09375 L 5.355469 -5.070312 L 5.5625 -5.070312 L 5.75 -5.050781 L 5.949219 -5.195312 L 6.035156 -5.375 L 5.992188 -5.574219 L 5.972656 -5.773438 L 5.679688 -6.316406 L 5.449219 -6.628906 L 4.757812 -7.109375 L 4.171875 -7.308594 L 3.765625 -7.394531 L 2.960938 -7.414062 L 2.730469 -7.351562 L 2.519531 -7.339844 L 2.332031 -7.308594 L 1.933594 -7.183594 L 1.578125 -6.976562 L 1.078125 -6.628906 L 0.710938 -6.136719 L 0.523438 -5.5625 L 0.492188 -5.050781 L 0.5 -4.726562 L 0.574219 -4.308594 L 0.742188 -3.941406 L 1.128906 -3.460938 L 1.839844 -3.074219 L 2.21875 -2.949219 L 3.859375 -2.761719 L 4.234375 -2.582031 L 4.371094 -2.457031 L 4.433594 -2.195312 L 4.351562 -1.933594 L 4.214844 -1.777344 L 3.859375 -1.621094 L 3.535156 -1.601562 L 3.347656 -1.570312 L 2.8125 -1.621094 L 2.636719 -1.714844 L 2.457031 -1.828125 L 2.113281 -2.207031 L 1.902344 -2.289062 L 1.714844 -2.269531 L 1.515625 -2.300781 L 0.710938 -2.257812 L 0.523438 -2.175781 L 0.4375 -1.957031 L 0.46875 -1.746094 L 0.511719 -1.539062 L 0.574219 -1.347656 L 0.773438 -0.960938 L 0.921875 -0.824219 L 1.054688 -0.667969 L 1.421875 -0.4375 L 1.570312 -0.28125 L 1.765625 -0.1875 L 1.976562 -0.125 L 2.382812 0.0195312 Z M 2.8125 0.09375 "/></g></g></g><g fill="#000000" fill-opacity="1"><g transform="translate(52.657409, 19.377773)"><g><path d="M 2.8125 0.09375 L 3.640625 0.113281 L 3.847656 0.09375 L 4.058594 0.0429688 L 4.265625 0.0117188 L 4.476562 -0.0742188 L 4.664062 -0.09375 L 4.863281 -0.1875 L 5.574219 -0.617188 L 5.875 -0.929688 L 5.980469 -1.078125 L 6.097656 -1.308594 L 6.160156 -1.496094 L 6.222656 -1.671875 L 6.285156 -2.195312 L 6.265625 -2.53125 L 6.105469 -3.136719 L 5.992188 -3.304688 L 5.71875 -3.617188 L 5.53125 -3.785156 L 5.363281 -3.867188 L 5.175781 -3.984375 L 4.359375 -4.234375 L 4.152344 -4.265625 L 3.941406 -4.277344 L 3.722656 -4.320312 L 3.417969 -4.320312 L 2.867188 -4.433594 L 2.476562 -4.621094 L 2.320312 -4.769531 L 2.28125 -5.082031 L 2.332031 -5.363281 L 2.457031 -5.5 L 2.613281 -5.617188 L 2.78125 -5.710938 L 2.96875 -5.75 L 3.304688 -5.761719 L 3.640625 -5.71875 L 3.828125 -5.667969 L 4.015625 -5.542969 L 4.191406 -5.394531 L 4.351562 -5.1875 L 4.582031 -5.050781 L 5.070312 -5.09375 L 5.355469 -5.070312 L 5.5625 -5.070312 L 5.75 -5.050781 L 5.949219 -5.195312 L 6.035156 -5.375 L 5.992188 -5.574219 L 5.972656 -5.773438 L 5.679688 -6.316406 L 5.449219 -6.628906 L 4.757812 -7.109375 L 4.171875 -7.308594 L 3.765625 -7.394531 L 2.960938 -7.414062 L 2.730469 -7.351562 L 2.519531 -7.339844 L 2.332031 -7.308594 L 1.933594 -7.183594 L 1.578125 -6.976562 L 1.078125 -6.628906 L 0.710938 -6.136719 L 0.523438 -5.5625 L 0.492188 -5.050781 L 0.5 -4.726562 L 0.574219 -4.308594 L 0.742188 -3.941406 L 1.128906 -3.460938 L 1.839844 -3.074219 L 2.21875 -2.949219 L 3.859375 -2.761719 L 4.234375 -2.582031 L 4.371094 -2.457031 L 4.433594 -2.195312 L 4.351562 -1.933594 L 4.214844 -1.777344 L 3.859375 -1.621094 L 3.535156 -1.601562 L 3.347656 -1.570312 L 2.8125 -1.621094 L 2.636719 -1.714844 L 2.457031 -1.828125 L 2.113281 -2.207031 L 1.902344 -2.289062 L 1.714844 -2.269531 L 1.515625 -2.300781 L 0.710938 -2.257812 L 0.523438 -2.175781 L 0.4375 -1.957031 L 0.46875 -1.746094 L 0.511719 -1.539062 L 0.574219 -1.347656 L 0.773438 -0.960938 L 0.921875 -0.824219 L 1.054688 -0.667969 L 1.421875 -0.4375 L 1.570312 -0.28125 L 1.765625 -0.1875 L 1.976562 -0.125 L 2.382812 0.0195312 Z M 2.8125 0.09375 "/></g></g></g><g fill="#000000" fill-opacity="1"><g transform="translate(60.123953, 19.377773)"><g><path d="M 3.503906 0.0429688 L 3.921875 0.0195312 L 4.109375 -0.0820312 L 4.214844 -0.28125 L 4.214844 -1.316406 L 4.089844 -1.515625 L 3.859375 -1.632812 L 3.640625 -1.632812 L 3.386719 -1.714844 L 3.261719 -1.957031 L 3.292969 -2.152344 L 3.285156 -3.304688 L 3.304688 -3.535156 L 3.261719 -4.289062 L 3.304688 -5.34375 L 3.378906 -5.585938 L 3.609375 -5.679688 L 3.816406 -5.710938 L 4.035156 -5.792969 L 4.140625 -5.960938 L 4.152344 -6.996094 L 4.027344 -7.195312 L 3.835938 -7.308594 L 2.574219 -7.308594 L 2.382812 -7.332031 L 2.175781 -7.289062 L 1.316406 -7.289062 L 1.117188 -7.320312 L 0.878906 -7.320312 L 0.667969 -7.214844 L 0.566406 -6.964844 L 0.597656 -6.191406 L 0.574219 -5.992188 L 0.691406 -5.78125 L 0.921875 -5.667969 L 1.128906 -5.667969 L 1.328125 -5.542969 L 1.421875 -5.261719 L 1.453125 -2.050781 L 1.339844 -1.734375 L 0.648438 -1.527344 L 0.535156 -1.339844 L 0.5 -0.375 L 0.605469 -0.09375 L 0.816406 0 L 1.015625 0 L 1.214844 -0.0195312 L 1.515625 0.0195312 L 1.839844 0.0117188 L 2.050781 -0.0117188 L 2.46875 0.03125 L 2.78125 -0.0117188 L 3.292969 -0.0117188 Z M 3.503906 0.0429688 "/></g></g></g><g fill="#000000" fill-opacity="1"><g transform="translate(65.666375, 19.377773)"><g><path d="M 3.597656 0.09375 L 3.847656 0.0117188 L 4.078125 -0.292969 L 4.214844 -0.585938 L 4.277344 -0.804688 L 4.476562 -1.140625 L 4.539062 -1.347656 L 4.644531 -1.570312 L 4.707031 -1.746094 L 4.820312 -1.933594 L 5.230469 -2.886719 L 5.300781 -3.117188 L 5.488281 -3.449219 L 6.398438 -5.605469 L 6.503906 -5.792969 L 6.683594 -6.167969 L 6.734375 -6.367188 L 6.933594 -6.734375 L 7.007812 -7.015625 L 6.953125 -7.234375 L 6.765625 -7.277344 L 6.546875 -7.300781 L 6.359375 -7.332031 L 6.160156 -7.308594 L 5.949219 -7.300781 L 5.550781 -7.339844 L 5.324219 -7.203125 L 5.144531 -7.027344 L 4.171875 -4.726562 L 4.109375 -4.507812 L 4.015625 -4.328125 L 3.972656 -4.140625 L 3.867188 -3.953125 L 3.660156 -3.367188 L 3.554688 -3.179688 L 3.441406 -3.199219 L 3.179688 -3.765625 L 3.136719 -3.964844 L 2.960938 -4.320312 L 2.4375 -5.679688 L 2.164062 -6.234375 L 1.871094 -7.027344 L 1.695312 -7.203125 L 1.453125 -7.308594 L 0.859375 -7.332031 L 0.648438 -7.300781 L 0.25 -7.300781 L 0.0820312 -7.226562 L 0 -7.015625 L 0.335938 -6.128906 L 0.4375 -5.972656 L 0.492188 -5.773438 L 0.574219 -5.5625 L 0.691406 -5.40625 L 0.761719 -5.1875 L 1.703125 -3.074219 L 1.765625 -2.867188 L 2.027344 -2.320312 L 2.101562 -2.101562 L 2.28125 -1.746094 L 2.394531 -1.558594 L 2.445312 -1.347656 L 2.867188 -0.355469 L 2.960938 -0.199219 L 3.167969 -0.0195312 L 3.398438 0.0625 Z M 3.597656 0.09375 "/></g></g></g><g fill="#000000" fill-opacity="1"><g transform="translate(73.50938, 19.377773)"><g><path d="M 3.640625 0.03125 L 5.132812 0.0117188 L 5.355469 -0.0820312 L 5.46875 -0.304688 L 5.46875 -1.359375 L 5.355469 -1.570312 L 5.132812 -1.664062 L 4.894531 -1.640625 L 4.695312 -1.671875 L 4.160156 -1.683594 L 3.816406 -1.640625 L 3.609375 -1.664062 L 3.378906 -1.652344 L 3.179688 -1.683594 L 2.949219 -1.664062 L 2.730469 -1.765625 L 2.644531 -1.957031 L 2.644531 -2.613281 L 2.738281 -2.832031 L 2.929688 -2.949219 L 3.242188 -2.960938 L 3.578125 -2.929688 L 3.972656 -2.949219 L 4.402344 -2.9375 L 4.613281 -2.960938 L 4.851562 -2.949219 L 5.0625 -3.03125 L 5.132812 -3.242188 L 5.164062 -4.183594 L 5.0625 -4.476562 L 4.820312 -4.613281 L 4.203125 -4.613281 L 3.984375 -4.589844 L 3.546875 -4.621094 L 2.9375 -4.601562 L 2.71875 -4.695312 L 2.636719 -5.019531 L 2.636719 -5.34375 L 2.730469 -5.542969 L 2.960938 -5.625 L 3.15625 -5.617188 L 3.355469 -5.65625 L 4.851562 -5.636719 L 5.050781 -5.648438 L 5.269531 -5.773438 L 5.375 -5.960938 L 5.363281 -6.167969 L 5.375 -6.378906 L 5.355469 -7.007812 L 5.261719 -7.203125 L 5.050781 -7.289062 L 4.832031 -7.289062 L 4.644531 -7.332031 L 3.796875 -7.320312 L 3.566406 -7.300781 L 3.355469 -7.320312 L 3.179688 -7.308594 L 2.96875 -7.332031 L 2.113281 -7.308594 L 1.902344 -7.339844 L 1.703125 -7.300781 L 1.515625 -7.320312 L 1.308594 -7.300781 L 1.097656 -7.308594 L 0.878906 -7.226562 L 0.761719 -7.007812 L 0.785156 -6.609375 L 0.753906 -6.179688 L 0.785156 -5.949219 L 0.761719 -4.925781 L 0.792969 -4.707031 L 0.773438 -4.507812 L 0.761719 -3.648438 L 0.792969 -3.460938 L 0.785156 -1.765625 L 0.761719 -1.570312 L 0.792969 -1.359375 L 0.761719 -0.636719 L 0.785156 -0.40625 L 0.867188 -0.125 L 1.183594 0.0117188 L 1.933594 0.0195312 L 2.164062 0 L 2.351562 0.0117188 L 2.78125 -0.0195312 L 2.980469 0.0195312 L 3.222656 0.03125 L 3.429688 0.0117188 Z M 3.640625 0.03125 "/></g></g></g><g fill="#ffffff" fill-opacity="1"><g transform="translate(84.911272, 19.532363)"><g><path d="M 4.265625 0.15625 C 6.789062 0.15625 8.367188 -1.671875 8.136719 -4.246094 L 3.902344 -4.246094 L 3.902344 -2.761719 L 5.917969 -2.761719 C 5.710938 -2.144531 5.125 -1.726562 4.289062 -1.726562 C 3.117188 -1.726562 2.4375 -2.550781 2.4375 -3.660156 C 2.4375 -4.8125 3.179688 -5.59375 4.265625 -5.59375 C 4.914062 -5.59375 5.46875 -5.3125 5.75 -4.851562 L 8 -4.851562 C 7.570312 -6.453125 6.085938 -7.476562 4.234375 -7.476562 C 1.933594 -7.476562 0.355469 -5.910156 0.355469 -3.660156 C 0.355469 -1.402344 1.945312 0.15625 4.265625 0.15625 Z M 4.265625 0.15625 "/></g></g></g><g fill="#ffffff" fill-opacity="1"><g transform="translate(93.400392, 19.532363)"><g><path d="M 0.773438 0 L 2.886719 0 L 2.886719 -2.082031 L 3.679688 -2.082031 L 4.726562 0 L 7.121094 0 L 5.773438 -2.46875 C 6.546875 -2.898438 6.984375 -3.671875 6.984375 -4.695312 C 6.984375 -6.316406 5.886719 -7.320312 4.109375 -7.320312 L 0.773438 -7.320312 Z M 2.84375 -3.765625 L 2.84375 -5.59375 L 3.828125 -5.59375 C 4.496094 -5.59375 4.863281 -5.269531 4.863281 -4.683594 C 4.863281 -4.097656 4.496094 -3.765625 3.828125 -3.765625 Z M 2.84375 -3.765625 "/></g></g></g><g fill="#ffffff" fill-opacity="1"><g transform="translate(100.927692, 19.532363)"><g><path d="M 4.339844 0.15625 C 6.671875 0.15625 8.324219 -1.421875 8.324219 -3.660156 C 8.324219 -5.898438 6.671875 -7.476562 4.339844 -7.476562 C 2.007812 -7.476562 0.355469 -5.898438 0.355469 -3.660156 C 0.355469 -1.421875 2.007812 0.15625 4.339844 0.15625 Z M 2.5 -3.660156 C 2.5 -4.757812 3.261719 -5.523438 4.339844 -5.523438 C 5.429688 -5.523438 6.179688 -4.757812 6.179688 -3.660156 C 6.179688 -2.5625 5.429688 -1.796875 4.339844 -1.796875 C 3.261719 -1.796875 2.5 -2.5625 2.5 -3.660156 Z M 2.5 -3.660156 "/></g></g></g><g fill="#ffffff" fill-opacity="1"><g transform="translate(109.615451, 19.532363)"><g><path d="M 2.40625 0 L 4.507812 0 L 5.835938 -4.066406 L 7.164062 0 L 9.265625 0 L 11.617188 -7.320312 L 9.402344 -7.320312 L 8.890625 -5.6875 L 8.136719 -3.347656 L 6.839844 -7.320312 L 4.832031 -7.320312 L 4.289062 -5.6875 L 3.546875 -3.410156 L 2.804688 -5.6875 L 2.289062 -7.320312 L 0.0507812 -7.320312 Z M 2.40625 0 "/></g></g></g><g fill="#ffffff" fill-opacity="1"><g transform="translate(121.282765, 19.532363)"><g><path d="M 2.519531 0 L 4.621094 0 L 4.621094 -5.363281 L 6.851562 -5.363281 L 6.851562 -7.320312 L 0.292969 -7.320312 L 0.292969 -5.363281 L 2.519531 -5.363281 Z M 2.519531 0 "/></g></g></g><g fill="#ffffff" fill-opacity="1"><g transform="translate(128.423247, 19.532363)"><g><path d="M 5.144531 0 L 7.257812 0 L 7.257812 -7.320312 L 5.144531 -7.320312 L 5.144531 -4.695312 L 2.886719 -4.695312 L 2.886719 -7.320312 L 0.773438 -7.320312 L 0.773438 0 L 2.886719 0 L 2.886719 -2.75 L 5.144531 -2.75 Z M 5.144531 0 "/></g></g></g></svg>